<?xml version="1.0" standalone="no"?>
<!DOCTYPE svg PUBLIC "-//W3C//DTD SVG 20010904//EN"
 "http://www.w3.org/TR/2001/REC-SVG-20010904/DTD/svg10.dtd">
<svg version="1.0" xmlns="http://www.w3.org/2000/svg"
 width="512.000000pt" height="512.000000pt" viewBox="0 0 512.000000 512.000000"
 preserveAspectRatio="xMidYMid meet">

<g transform="translate(0.000000,512.000000) scale(0.100000,-0.100000)"
fill="#000000" stroke="none">
<path d="M2870 4654 c-388 -36 -648 -118 -934 -296 -527 -327 -896 -949 -1025
-1728 -52 -312 -69 -812 -36 -1065 50 -388 182 -680 398 -881 159 -148 352
-224 565 -224 119 0 183 13 269 55 102 50 180 131 237 246 73 146 70 132 242
1099 26 146 47 266 48 266 0 1 51 7 111 13 648 68 1161 378 1390 839 138 277
172 602 94 892 -102 379 -424 659 -862 750 -143 30 -371 45 -497 34z m220
-501 c254 -52 423 -193 496 -415 25 -75 28 -97 28 -228 1 -269 -68 -469 -216
-632 -119 -130 -312 -226 -558 -278 -134 -28 -128 -29 -119 28 4 26 37 220 74
432 79 461 81 479 65 555 -23 112 -97 158 -255 159 -148 0 -250 -50 -307 -151
-32 -56 -52 -154 -157 -756 -27 -153 -51 -280 -54 -283 -3 -3 -54 2 -114 11
-136 20 -196 10 -253 -41 -46 -42 -64 -99 -58 -186 9 -141 61 -183 253 -209
44 -6 85 -14 91 -18 10 -6 -108 -713 -151 -909 -22 -96 -71 -190 -112 -215
-97 -56 -236 89 -316 331 -62 188 -87 359 -87 601 0 812 243 1516 652 1896
215 199 444 300 743 329 72 7 278 -5 355 -21z"/>
</g>
</svg>
